<svg xmlns="http://www.w3.org/2000/svg" width="1400" height="900" viewBox="0 0 1400 900">
  <defs>
    <!-- Parchment texture -->
    <filter id="parchment-tex" x="0" y="0" width="100%" height="100%">
      <feTurbulence type="fractalNoise" baseFrequency="0.85" numOctaves="4" seed="3" result="noise"/>
      <feColorMatrix type="saturate" values="0" in="noise" result="gray"/>
      <feBlend in="SourceGraphic" in2="gray" mode="multiply" result="blended"/>
      <feComponentTransfer in="blended">
        <feFuncR type="linear" slope="1.05" intercept="0"/>
        <feFuncG type="linear" slope="0.98" intercept="0"/>
        <feFuncB type="linear" slope="0.88" intercept="0"/>
      </feComponentTransfer>
    </filter>

    <!-- Land texture -->
    <filter id="land-tex">
      <feTurbulence type="fractalNoise" baseFrequency="0.06" numOctaves="3" seed="7" result="noise"/>
      <feDisplacementMap in="SourceGraphic" in2="noise" scale="4" xChannelSelector="R" yChannelSelector="G"/>
    </filter>

    <!-- Soft shadow for landmasses -->
    <filter id="land-shadow" x="-8%" y="-8%" width="120%" height="120%">
      <feDropShadow dx="4" dy="5" stdDeviation="8" flood-color="#6b4020" flood-opacity="0.45"/>
    </filter>

    <!-- City glow -->
    <filter id="city-glow" x="-50%" y="-50%" width="200%" height="200%">
      <feGaussianBlur stdDeviation="3" result="blur"/>
      <feMerge><feMergeNode in="blur"/><feMergeNode in="SourceGraphic"/></feMerge>
    </filter>

    <!-- Subtle inner shadow for sea -->
    <filter id="vignette-filter" x="0" y="0" width="100%" height="100%">
      <feGaussianBlur stdDeviation="60" result="blur"/>
      <feComposite in="SourceGraphic" in2="blur" operator="over"/>
    </filter>

    <!-- Sea wave pattern -->
    <pattern id="sea-waves" x="0" y="0" width="60" height="30" patternUnits="userSpaceOnUse">
      <path d="M0,15 C7,9 13,9 20,15 C27,21 33,21 40,15 C47,9 53,9 60,15" fill="none" stroke="#7a9db8" stroke-width="0.9" opacity="0.5"/>
      <path d="M0,25 C7,19 13,19 20,25 C27,31 33,31 40,25 C47,19 53,19 60,25" fill="none" stroke="#7a9db8" stroke-width="0.7" opacity="0.35"/>
    </pattern>

    <!-- Land subtle texture pattern -->
    <pattern id="land-dots" x="0" y="0" width="8" height="8" patternUnits="userSpaceOnUse">
      <circle cx="4" cy="4" r="0.6" fill="#b8905a" opacity="0.25"/>
    </pattern>

    <!-- Vignette gradient on sea -->
    <radialGradient id="sea-depth" cx="50%" cy="50%" r="60%">
      <stop offset="0%" style="stop-color:#adc8d8;stop-opacity:1"/>
      <stop offset="70%" style="stop-color:#8ab0c4;stop-opacity:1"/>
      <stop offset="100%" style="stop-color:#6a94ae;stop-opacity:1"/>
    </radialGradient>

    <!-- Continent gradient -->
    <linearGradient id="land-grad" x1="20%" y1="0%" x2="80%" y2="100%">
      <stop offset="0%" style="stop-color:#e2c47a"/>
      <stop offset="40%" style="stop-color:#d4a85e"/>
      <stop offset="100%" style="stop-color:#c49050"/>
    </linearGradient>

    <!-- Desert gradient -->
    <linearGradient id="desert-grad" x1="0%" y1="0%" x2="100%" y2="100%">
      <stop offset="0%" style="stop-color:#e8c878"/>
      <stop offset="100%" style="stop-color:#d4a848"/>
    </linearGradient>

    <!-- Ice gradient -->
    <linearGradient id="ice-grad" x1="0%" y1="0%" x2="0%" y2="100%">
      <stop offset="0%" style="stop-color:#e4eef4"/>
      <stop offset="100%" style="stop-color:#c8dce8"/>
    </linearGradient>

    <!-- Frame decoration gradient -->
    <linearGradient id="frame-grad" x1="0%" y1="0%" x2="100%" y2="100%">
      <stop offset="0%" style="stop-color:#6b3a0e"/>
      <stop offset="50%" style="stop-color:#8b5a2e"/>
      <stop offset="100%" style="stop-color:#6b3a0e"/>
    </linearGradient>

    <!-- Faction territory fills -->
    <pattern id="faction1-pattern" x="0" y="0" width="10" height="10" patternUnits="userSpaceOnUse">
      <line x1="0" y1="0" x2="10" y2="10" stroke="#8060a0" stroke-width="1" opacity="0.2"/>
    </pattern>
    <pattern id="faction2-pattern" x="0" y="0" width="10" height="10" patternUnits="userSpaceOnUse">
      <line x1="0" y1="0" x2="10" y2="10" stroke="#406040" stroke-width="1" opacity="0.2"/>
    </pattern>
    <pattern id="faction3-pattern" x="0" y="0" width="10" height="10" patternUnits="userSpaceOnUse">
      <line x1="0" y1="0" x2="10" y2="10" stroke="#204060" stroke-width="1" opacity="0.2"/>
    </pattern>

    <!-- Clip for map interior -->
    <clipPath id="map-clip">
      <rect x="45" y="45" width="1310" height="810"/>
    </clipPath>
  </defs>

  <!-- ==================== BACKGROUND ==================== -->
  <!-- Parchment base -->
  <rect width="1400" height="900" fill="#f0ddb0"/>
  <rect width="1400" height="900" fill="url(#land-dots)" opacity="0.4"/>

  <!-- Sea base inside frame -->
  <rect x="45" y="45" width="1310" height="810" fill="url(#sea-depth)" clip-path="url(#map-clip)"/>
  <rect x="45" y="45" width="1310" height="810" fill="url(#sea-waves)" clip-path="url(#map-clip)" opacity="0.8"/>

  <!-- Sea depth vignette -->
  <rect x="45" y="45" width="1310" height="810" fill="none" clip-path="url(#map-clip)"/>

  <!-- ==================== LANDMASSES ==================== -->

  <!-- ── 北冥雪原 (Northern Ice) ── -->
  <path d="M 45,45 L 1355,45 L 1355,155
    C 1330,145 1310,130 1285,138
    C 1260,146 1248,162 1220,158
    C 1195,154 1182,138 1155,132
    C 1128,126 1108,142 1082,148
    C 1056,154 1038,140 1010,136
    C 982,132 968,150 940,155
    C 914,160 896,144 868,140
    C 840,136 825,154 798,158
    C 772,162 756,146 728,142
    C 700,138 684,156 656,160
    C 629,164 612,148 584,144
    C 555,140 540,158 512,162
    C 484,166 467,150 438,147
    C 410,144 394,162 365,165
    C 338,168 320,152 292,148
    C 265,144 248,162 220,166
    C 193,170 176,155 148,150
    C 120,145 105,162 78,165
    L 45,162 Z"
    fill="url(#ice-grad)" filter="url(#land-shadow)" stroke="#a0b8c8" stroke-width="1"/>
  <!-- Ice texture lines -->
  <g stroke="#b8ccd8" stroke-width="0.8" opacity="0.5" clip-path="url(#map-clip)">
    <path d="M 80,90 C 100,82 120,88 140,85 C 160,82 180,90 200,86"/>
    <path d="M 280,100 C 310,92 340,98 370,94"/>
    <path d="M 500,88 C 540,80 580,86 620,82"/>
    <path d="M 750,95 C 790,88 830,94 870,90"/>
    <path d="M 1000,100 C 1040,92 1080,98 1120,94"/>
    <path d="M 1200,90 C 1240,82 1280,88 1320,84"/>
  </g>
  <!-- Ice label -->
  <text x="700" y="118" text-anchor="middle" font-family="Georgia, 'Times New Roman', serif" font-size="18" fill="#4a6878" font-style="italic" letter-spacing="6" opacity="0.85">北 冥 雪 原</text>

  <!-- ── 炎荒之地 (Western Desert) ── -->
  <path d="M 92,228
    C 114,198 148,178 184,172
    C 218,166 252,172 284,188
    C 314,203 338,228 354,256
    C 370,283 376,312 374,342
    C 372,370 363,397 348,421
    C 332,446 312,466 288,480
    C 263,494 235,501 208,500
    C 180,499 154,490 132,473
    C 110,456 94,430 84,401
    C 74,372 72,341 78,312
    C 84,283 92,254 92,228 Z"
    fill="url(#desert-grad)" filter="url(#land-shadow)" stroke="#c09040" stroke-width="1.2"/>
  <!-- Desert sand texture -->
  <g clip-path="url(#map-clip)">
    <ellipse cx="186" cy="300" rx="130" ry="110" fill="#e4b858" opacity="0.15"/>
    <ellipse cx="220" cy="360" rx="90" ry="70" fill="#e8c068" opacity="0.12"/>
    <!-- Sand ripple lines -->
    <path d="M 110,280 C 135,275 160,280 185,276" fill="none" stroke="#c89840" stroke-width="1" opacity="0.4"/>
    <path d="M 120,300 C 150,295 180,300 210,296" fill="none" stroke="#c89840" stroke-width="1" opacity="0.4"/>
    <path d="M 115,320 C 148,315 182,320 215,316" fill="none" stroke="#c89840" stroke-width="1" opacity="0.4"/>
    <path d="M 125,340 C 160,335 195,340 228,336" fill="none" stroke="#c89840" stroke-width="1" opacity="0.4"/>
    <path d="M 130,360 C 168,355 206,360 244,356" fill="none" stroke="#c89840" stroke-width="1" opacity="0.4"/>
    <path d="M 128,380 C 165,375 202,380 238,376" fill="none" stroke="#c89840" stroke-width="1" opacity="0.4"/>
    <path d="M 120,400 C 154,395 188,400 222,396" fill="none" stroke="#c89840" stroke-width="1" opacity="0.35"/>
  </g>

  <!-- ── 苍云大陆 (Main Continent) ── -->
  <path d="M 492,108
    C 548,86 612,74 676,72
    C 732,70 788,78 840,96
    C 886,112 924,138 952,172
    C 976,203 990,238 994,275
    C 998,310 994,346 984,380
    C 972,415 954,448 932,478
    C 910,508 884,534 856,556
    C 830,576 802,592 773,604
    C 745,616 716,623 686,626

    C 666,628 645,626 626,620
    C 606,614 588,602 573,586
    C 559,570 548,551 541,530

    C 537,518 534,506 532,494
    C 530,482 528,470 526,458
    C 528,448 532,438 538,430
    C 546,420 556,412 566,406

    -- peninsula going SE --
    C 580,416 594,430 606,446
    C 618,462 628,480 634,499
    C 640,518 641,538 638,556
    C 634,574 626,590 614,603
    C 601,616 586,625 569,629
    C 551,633 533,631 516,622
    C 499,613 483,597 471,578
    C 459,559 451,536 448,512

    -- back from peninsula, west coast --
    C 446,496 445,480 446,464
    C 447,448 450,432 453,416
    C 456,400 458,383 457,366
    C 456,349 452,332 444,317
    C 436,302 424,289 409,279
    C 396,270 381,264 366,262

    -- bay area --
    C 352,261 339,264 328,271
    C 318,278 310,289 306,302
    C 302,315 302,329 306,343
    C 310,357 318,370 328,381
    C 338,392 350,401 362,408
    C 374,415 386,420 398,424

    -- NW coast going back north --
    C 408,428 418,431 426,433
    C 436,435 444,434 450,428
    C 455,421 456,411 452,400
    C 447,387 438,374 430,361
    C 422,348 416,333 415,318
    C 414,303 416,288 422,275
    C 429,262 440,250 453,241
    C 466,232 481,226 496,223
    C 510,220 524,220 536,224

    -- back to NW start --
    C 520,196 506,170 496,144
    C 490,128 488,116 492,108 Z"
    fill="url(#land-grad)" filter="url(#land-shadow)" stroke="#a07840" stroke-width="1.5"/>

  <!-- Land texture overlay -->
  <path d="M 492,108
    C 548,86 612,74 676,72
    C 732,70 788,78 840,96
    C 886,112 924,138 952,172
    C 976,203 990,238 994,275
    C 998,310 994,346 984,380
    C 972,415 954,448 932,478
    C 910,508 884,534 856,556
    C 830,576 802,592 773,604
    C 745,616 716,623 686,626
    C 666,628 645,626 626,620
    C 606,614 588,602 573,586
    C 559,570 548,551 541,530
    C 537,518 534,506 532,494
    C 530,482 528,470 526,458
    C 528,448 532,438 538,430
    C 546,420 556,412 566,406
    C 580,416 594,430 606,446
    C 618,462 628,480 634,499
    C 640,518 641,538 638,556
    C 634,574 626,590 614,603
    C 601,616 586,625 569,629
    C 551,633 533,631 516,622
    C 499,613 483,597 471,578
    C 459,559 451,536 448,512
    C 446,496 445,480 446,464
    C 447,448 450,432 453,416
    C 456,400 458,383 457,366
    C 456,349 452,332 444,317
    C 436,302 424,289 409,279
    C 396,270 381,264 366,262
    C 352,261 339,264 328,271
    C 318,278 310,289 306,302
    C 302,315 302,329 306,343
    C 310,357 318,370 328,381
    C 338,392 350,401 362,408
    C 374,415 386,420 398,424
    C 408,428 418,431 426,433
    C 436,435 444,434 450,428
    C 455,421 456,411 452,400
    C 447,387 438,374 430,361
    C 422,348 416,333 415,318
    C 414,303 416,288 422,275
    C 429,262 440,250 453,241
    C 466,232 481,226 496,223
    C 510,220 524,220 536,224
    C 520,196 506,170 496,144
    C 490,128 488,116 492,108 Z"
    fill="url(#land-dots)" opacity="0.5"/>

  <!-- ── 瀛洲群岛 (Southern Islands) ── -->
  <!-- Island 1 -->
  <ellipse cx="310" cy="710" rx="68" ry="30" fill="url(#land-grad)" filter="url(#land-shadow)" stroke="#a07840" stroke-width="1.2" transform="rotate(-12,310,710)"/>
  <!-- Island 2 -->
  <ellipse cx="468" cy="732" rx="88" ry="28" fill="url(#land-grad)" filter="url(#land-shadow)" stroke="#a07840" stroke-width="1.2" transform="rotate(8,468,732)"/>
  <!-- Island 3 -->
  <ellipse cx="635" cy="720" rx="60" ry="26" fill="url(#land-grad)" filter="url(#land-shadow)" stroke="#a07840" stroke-width="1.2" transform="rotate(-5,635,720)"/>
  <!-- Island 4 -->
  <ellipse cx="768" cy="704" rx="50" ry="22" fill="url(#land-grad)" filter="url(#land-shadow)" stroke="#a07840" stroke-width="1.2" transform="rotate(10,768,704)"/>
  <!-- Small island 5 -->
  <ellipse cx="386" cy="754" rx="34" ry="16" fill="url(#land-grad)" filter="url(#land-shadow)" stroke="#a07840" stroke-width="1"/>
  <!-- Small island 6 -->
  <ellipse cx="548" cy="748" rx="28" ry="14" fill="url(#land-grad)" filter="url(#land-shadow)" stroke="#a07840" stroke-width="1"/>

  <!-- ==================== FACTION TERRITORIES ==================== -->
  <!-- 天剑宗 domain (north of main continent) - light purple overlay -->
  <ellipse cx="660" cy="230" rx="220" ry="160" fill="#8060a0" opacity="0.10" clip-path="url(#map-clip)"/>
  <!-- 万药谷 domain (west-center) - light green overlay -->
  <ellipse cx="440" cy="380" rx="130" ry="130" fill="#406840" opacity="0.12" clip-path="url(#map-clip)"/>
  <!-- 玄冥海 domain (southeast coastal) - light blue overlay -->
  <ellipse cx="820" cy="500" rx="160" ry="120" fill="#204878" opacity="0.10" clip-path="url(#map-clip)"/>

  <!-- ==================== MOUNTAIN RANGES ==================== -->
  <!-- Mountain symbol: small hand-drawn mountain shapes -->

  <!-- 昆仑山脉 (main range, center-east of continent) -->
  <g fill="#8a7050" stroke="#6a5030" stroke-width="0.8" opacity="0.85">
    <!-- Mountain group 1 -->
    <path d="M 755,178 L 740,148 L 725,178 Z"/>
    <path d="M 770,184 L 758,158 L 746,184 Z"/>
    <path d="M 786,180 L 774,154 L 762,180 Z"/>
    <!-- Mountain group 2 -->
    <path d="M 790,228 L 774,196 L 758,228 Z"/>
    <path d="M 806,234 L 793,206 L 780,234 Z"/>
    <path d="M 822,230 L 809,202 L 796,230 Z"/>
    <!-- Mountain group 3 -->
    <path d="M 810,278 L 796,248 L 782,278 Z"/>
    <path d="M 826,283 L 814,256 L 802,283 Z"/>
    <path d="M 842,280 L 830,252 L 818,280 Z"/>
    <!-- Mountain group 4 -->
    <path d="M 820,328 L 808,300 L 796,328 Z"/>
    <path d="M 836,334 L 825,307 L 814,334 Z"/>
    <path d="M 852,330 L 841,303 L 830,330 Z"/>
    <!-- Mountain group 5 -->
    <path d="M 800,378 L 788,350 L 776,378 Z"/>
    <path d="M 816,383 L 805,356 L 794,383 Z"/>
    <!-- Snow caps -->
    <path d="M 755,178 L 748,162 L 741,178 Z" fill="#e8e0d0" stroke="none" opacity="0.7"/>
    <path d="M 790,228 L 782,210 L 774,228 Z" fill="#e8e0d0" stroke="none" opacity="0.7"/>
    <path d="M 810,278 L 802,262 L 794,278 Z" fill="#e8e0d0" stroke="none" opacity="0.7"/>
  </g>

  <!-- 北部山脉 (northern mountains of continent) -->
  <g fill="#8a7050" stroke="#6a5030" stroke-width="0.8" opacity="0.8">
    <path d="M 598,164 L 585,138 L 572,164 Z"/>
    <path d="M 614,170 L 602,146 L 590,170 Z"/>
    <path d="M 630,166 L 618,142 L 606,166 Z"/>
    <path d="M 645,172 L 634,149 L 623,172 Z"/>
    <!-- Snow caps -->
    <path d="M 598,164 L 591,148 L 584,164 Z" fill="#e8e0d0" stroke="none" opacity="0.7"/>
    <path d="M 630,166 L 623,150 L 616,166 Z" fill="#e8e0d0" stroke="none" opacity="0.7"/>
  </g>

  <!-- 西荒山脉 (western desert mountains) -->
  <g fill="#9a8060" stroke="#7a6040" stroke-width="0.8" opacity="0.8">
    <path d="M 242,232 L 230,208 L 218,232 Z"/>
    <path d="M 258,238 L 246,214 L 234,238 Z"/>
    <path d="M 274,234 L 262,210 L 250,234 Z"/>
    <path d="M 258,272 L 246,250 L 234,272 Z"/>
    <path d="M 274,278 L 263,256 L 252,278 Z"/>
  </g>

  <!-- ==================== RIVERS ==================== -->
  <g fill="none" stroke="#5880a0" stroke-width="2" opacity="0.6">
    <!-- 苍龙江 (Cangyun River) -->
    <path d="M 800,250 C 780,270 758,290 740,310 C 722,330 706,348 692,368 C 678,388 668,408 660,428 C 650,450 642,472 636,495"/>
    <!-- 灵溪 (Spirit Stream) -->
    <path d="M 680,280 C 660,296 640,312 622,330 C 604,348 588,368 574,390"/>
    <!-- Eastern river -->
    <path d="M 880,280 C 895,310 905,345 910,382 C 914,416 912,452 905,488"/>
  </g>
  <!-- River labels -->
  <text x="700" y="395" font-family="Georgia, serif" font-size="11" fill="#4070a0" font-style="italic" transform="rotate(40,700,395)" opacity="0.8">苍龙江</text>

  <!-- ==================== FORESTS ==================== -->
  <!-- Forest cluster: small tree symbols -->
  <!-- Forest 1: NW of continent (万药谷 area) -->
  <g fill="#5a8050" stroke="#3a5830" stroke-width="0.6" opacity="0.8">
    <!-- Tree symbols: circle on a stick -->
    <circle cx="470" cy="346" r="9" fill="#6a9060"/><line x1="470" y1="355" x2="470" y2="362" stroke="#5a7040" stroke-width="1.5"/>
    <circle cx="490" cy="338" r="8" fill="#7aa060"/><line x1="490" y1="346" x2="490" y2="353" stroke="#5a7040" stroke-width="1.5"/>
    <circle cx="510" cy="348" r="9" fill="#6a9060"/><line x1="510" y1="357" x2="510" y2="364" stroke="#5a7040" stroke-width="1.5"/>
    <circle cx="480" cy="322" r="8" fill="#7aa060"/><line x1="480" y1="330" x2="480" y2="337" stroke="#5a7040" stroke-width="1.5"/>
    <circle cx="500" cy="316" r="7" fill="#6a9060"/><line x1="500" y1="323" x2="500" y2="330" stroke="#5a7040" stroke-width="1.5"/>
    <circle cx="522" cy="328" r="8" fill="#7aa060"/><line x1="522" y1="336" x2="522" y2="343" stroke="#5a7040" stroke-width="1.5"/>
    <circle cx="460" cy="366" r="7" fill="#6a9060"/><line x1="460" y1="373" x2="460" y2="380" stroke="#5a7040" stroke-width="1.5"/>
    <circle cx="534" cy="340" r="7" fill="#5a8050"/><line x1="534" y1="347" x2="534" y2="354" stroke="#5a7040" stroke-width="1.5"/>
  </g>

  <!-- Forest 2: Central area -->
  <g fill="#5a8050" stroke="#3a5830" stroke-width="0.6" opacity="0.75">
    <circle cx="640" cy="360" r="8" fill="#6a9060"/><line x1="640" y1="368" x2="640" y2="375" stroke="#5a7040" stroke-width="1.5"/>
    <circle cx="660" cy="350" r="7" fill="#7aa060"/><line x1="660" y1="357" x2="660" y2="364" stroke="#5a7040" stroke-width="1.5"/>
    <circle cx="678" cy="362" r="8" fill="#6a9060"/><line x1="678" y1="370" x2="678" y2="377" stroke="#5a7040" stroke-width="1.5"/>
    <circle cx="650" cy="376" r="7" fill="#5a8050"/><line x1="650" y1="383" x2="650" y2="390" stroke="#5a7040" stroke-width="1.5"/>
    <circle cx="670" cy="382" r="6" fill="#6a9060"/><line x1="670" y1="388" x2="670" y2="395" stroke="#5a7040" stroke-width="1.5"/>
  </g>

  <!-- Forest 3: South peninsula -->
  <g fill="#5a8050" stroke="#3a5830" stroke-width="0.6" opacity="0.7">
    <circle cx="560" cy="530" r="7" fill="#6a9060"/><line x1="560" y1="537" x2="560" y2="544" stroke="#5a7040" stroke-width="1.5"/>
    <circle cx="548" cy="548" r="8" fill="#7aa060"/><line x1="548" y1="556" x2="548" y2="563" stroke="#5a7040" stroke-width="1.5"/>
    <circle cx="568" cy="554" r="7" fill="#6a9060"/><line x1="568" y1="561" x2="568" y2="568" stroke="#5a7040" stroke-width="1.5"/>
  </g>

  <!-- ==================== CITIES ==================== -->
  <!-- City marker: starburst/circle with dot -->

  <!-- 苍云城 (Capital) - most prominent -->
  <g filter="url(#city-glow)">
    <circle cx="680" cy="310" r="10" fill="#f0e8d0" stroke="#6a3a10" stroke-width="1.5"/>
    <circle cx="680" cy="310" r="5" fill="#8b2020"/>
    <!-- Star points -->
    <line x1="680" y1="296" x2="680" y2="290" stroke="#6a3a10" stroke-width="1.2"/>
    <line x1="680" y1="324" x2="680" y2="330" stroke="#6a3a10" stroke-width="1.2"/>
    <line x1="666" y1="310" x2="660" y2="310" stroke="#6a3a10" stroke-width="1.2"/>
    <line x1="694" y1="310" x2="700" y2="310" stroke="#6a3a10" stroke-width="1.2"/>
  </g>
  <text x="680" y="344" text-anchor="middle" font-family="Georgia, 'Songti SC', serif" font-size="15" fill="#2c1a06" font-weight="bold" letter-spacing="2">苍云城</text>
  <text x="680" y="358" text-anchor="middle" font-family="Georgia, serif" font-size="10" fill="#5a3a16" font-style="italic">帝都</text>

  <!-- 天剑峰 (Tianjian Peak) -->
  <g filter="url(#city-glow)">
    <circle cx="626" cy="198" r="8" fill="#f0e8d0" stroke="#6a3a10" stroke-width="1.3"/>
    <circle cx="626" cy="198" r="3.5" fill="#402080"/>
    <line x1="626" y1="186" x2="626" y2="181" stroke="#6a3a10" stroke-width="1.1"/>
    <line x1="626" y1="210" x2="626" y2="215" stroke="#6a3a10" stroke-width="1.1"/>
    <line x1="614" y1="198" x2="609" y2="198" stroke="#6a3a10" stroke-width="1.1"/>
    <line x1="638" y1="198" x2="643" y2="198" stroke="#6a3a10" stroke-width="1.1"/>
  </g>
  <text x="660" y="196" font-family="Georgia, 'Songti SC', serif" font-size="13" fill="#2c1a06" font-weight="bold" letter-spacing="1">天剑峰</text>
  <text x="660" y="209" font-family="Georgia, serif" font-size="9" fill="#5a3a16" font-style="italic">天剑宗祖山</text>

  <!-- 万药谷 -->
  <g filter="url(#city-glow)">
    <circle cx="468" cy="348" r="7" fill="#f0e8d0" stroke="#6a3a10" stroke-width="1.2"/>
    <circle cx="468" cy="348" r="3" fill="#206020"/>
    <line x1="468" y1="337" x2="468" y2="333" stroke="#6a3a10" stroke-width="1"/>
    <line x1="468" y1="359" x2="468" y2="363" stroke="#6a3a10" stroke-width="1"/>
    <line x1="457" y1="348" x2="453" y2="348" stroke="#6a3a10" stroke-width="1"/>
    <line x1="479" y1="348" x2="483" y2="348" stroke="#6a3a10" stroke-width="1"/>
  </g>
  <text x="440" y="332" font-family="Georgia, 'Songti SC', serif" font-size="12" fill="#2c1a06" font-weight="bold" letter-spacing="1">万药谷</text>
  <text x="440" y="344" font-family="Georgia, serif" font-size="9" fill="#5a3a16" font-style="italic">丹药圣地</text>

  <!-- 玄冥港 -->
  <g filter="url(#city-glow)">
    <circle cx="878" cy="488" r="7" fill="#f0e8d0" stroke="#6a3a10" stroke-width="1.2"/>
    <circle cx="878" cy="488" r="3" fill="#204080"/>
    <line x1="878" y1="477" x2="878" y2="473" stroke="#6a3a10" stroke-width="1"/>
    <line x1="878" y1="499" x2="878" y2="503" stroke="#6a3a10" stroke-width="1"/>
    <line x1="867" y1="488" x2="863" y2="488" stroke="#6a3a10" stroke-width="1"/>
    <line x1="889" y1="488" x2="893" y2="488" stroke="#6a3a10" stroke-width="1"/>
  </g>
  <text x="906" y="486" font-family="Georgia, 'Songti SC', serif" font-size="12" fill="#2c1a06" font-weight="bold" letter-spacing="1">玄冥港</text>
  <text x="906" y="498" font-family="Georgia, serif" font-size="9" fill="#5a3a16" font-style="italic">东海门户</text>

  <!-- 炎都 (western city) -->
  <g filter="url(#city-glow)">
    <circle cx="178" cy="316" r="7" fill="#f0e8d0" stroke="#6a3a10" stroke-width="1.2"/>
    <circle cx="178" cy="316" r="3" fill="#a04020"/>
    <line x1="178" y1="305" x2="178" y2="301" stroke="#6a3a10" stroke-width="1"/>
    <line x1="178" y1="327" x2="178" y2="331" stroke="#6a3a10" stroke-width="1"/>
    <line x1="167" y1="316" x2="163" y2="316" stroke="#6a3a10" stroke-width="1"/>
    <line x1="189" y1="316" x2="193" y2="316" stroke="#6a3a10" stroke-width="1"/>
  </g>
  <text x="178" y="298" text-anchor="middle" font-family="Georgia, 'Songti SC', serif" font-size="12" fill="#2c1a06" font-weight="bold" letter-spacing="1">炎都</text>
  <text x="178" y="310" text-anchor="middle" font-family="Georgia, serif" font-size="9" fill="#5a3a16" font-style="italic">炎荒主城</text>

  <!-- 渡海城 (south island city) -->
  <g>
    <circle cx="468" cy="730" r="5" fill="#f0e8d0" stroke="#6a3a10" stroke-width="1"/>
    <circle cx="468" cy="730" r="2" fill="#5a3a10"/>
  </g>
  <text x="468" y="716" text-anchor="middle" font-family="Georgia, 'Songti SC', serif" font-size="11" fill="#2c1a06" font-weight="bold">渡海城</text>

  <!-- ==================== SEA LABELS ==================== -->
  <text x="960" y="380" text-anchor="middle" font-family="Georgia, 'Times New Roman', serif" font-size="20" fill="#305878" font-style="italic" letter-spacing="3" opacity="0.75">东 极 之 海</text>
  <text x="200" y="600" text-anchor="middle" font-family="Georgia, 'Times New Roman', serif" font-size="18" fill="#305878" font-style="italic" letter-spacing="3" opacity="0.75">西 荒 海</text>
  <text x="370" y="500" text-anchor="middle" font-family="Georgia, 'Times New Roman', serif" font-size="16" fill="#305878" font-style="italic" letter-spacing="2" opacity="0.7" transform="rotate(-15,370,500)">天 墟 之 海</text>
  <text x="500" y="780" text-anchor="middle" font-family="Georgia, 'Times New Roman', serif" font-size="18" fill="#305878" font-style="italic" letter-spacing="3" opacity="0.75">南 溟 大 海</text>
  <text x="1100" y="600" text-anchor="middle" font-family="Georgia, 'Times New Roman', serif" font-size="17" fill="#305878" font-style="italic" letter-spacing="2" opacity="0.7">太 渊 深 海</text>

  <!-- ==================== REGION LABELS ==================== -->
  <!-- 苍云大陆 main label -->
  <text x="690" y="480" text-anchor="middle" font-family="Georgia, 'Songti SC', serif" font-size="22" fill="#4a2808" font-weight="bold" letter-spacing="4" opacity="0.55">苍 云 大 陆</text>

  <!-- 炎荒之地 label -->
  <text x="224" y="358" text-anchor="middle" font-family="Georgia, 'Songti SC', serif" font-size="14" fill="#6a3808" font-weight="bold" letter-spacing="2" opacity="0.7">炎荒之地</text>

  <!-- 瀛洲群岛 label -->
  <text x="540" y="698" text-anchor="middle" font-family="Georgia, 'Songti SC', serif" font-size="13" fill="#4a2808" letter-spacing="2" opacity="0.75">瀛 洲 群 岛</text>

  <!-- 昆仑山脉 label -->
  <text x="862" y="295" font-family="Georgia, serif" font-size="12" fill="#4a3020" font-style="italic" transform="rotate(90,862,295)" opacity="0.7">昆 仑 山 脉</text>

  <!-- 天剑湾 (bay label) -->
  <text x="350" y="340" text-anchor="middle" font-family="Georgia, serif" font-size="11" fill="#305878" font-style="italic" transform="rotate(-20,350,340)" opacity="0.75">天 剑 湾</text>

  <!-- 玄冥半岛 (peninsula label) -->
  <text x="540" y="580" text-anchor="middle" font-family="Georgia, serif" font-size="11" fill="#4a2808" font-style="italic" transform="rotate(-40,540,580)" opacity="0.7">玄冥半岛</text>

  <!-- ==================== COMPASS ROSE ==================== -->
  <g transform="translate(1250,680)">
    <!-- Outer ring -->
    <circle r="62" fill="#f0ddb0" stroke="#8b5a2e" stroke-width="2"/>
    <circle r="58" fill="none" stroke="#8b5a2e" stroke-width="0.8"/>
    <!-- Cardinal points -->
    <!-- N -->
    <polygon points="0,-55 6,-30 0,-38 -6,-30" fill="#8b2020"/>
    <!-- S -->
    <polygon points="0,55 6,30 0,38 -6,30" fill="#4a3020"/>
    <!-- E -->
    <polygon points="55,0 30,6 38,0 30,-6" fill="#4a3020"/>
    <!-- W -->
    <polygon points="-55,0 -30,6 -38,0 -30,-6" fill="#4a3020"/>
    <!-- Intercardinal points -->
    <polygon points="0,-55 3,-40 0,-45 -3,-40" fill="#8b5a2e" transform="rotate(45)"/>
    <polygon points="0,-55 3,-40 0,-45 -3,-40" fill="#8b5a2e" transform="rotate(90)"/>
    <polygon points="0,-55 3,-40 0,-45 -3,-40" fill="#8b5a2e" transform="rotate(135)"/>
    <polygon points="0,-55 3,-40 0,-45 -3,-40" fill="#8b5a2e" transform="rotate(180)"/>
    <polygon points="0,-55 3,-40 0,-45 -3,-40" fill="#8b5a2e" transform="rotate(225)"/>
    <polygon points="0,-55 3,-40 0,-45 -3,-40" fill="#8b5a2e" transform="rotate(270)"/>
    <polygon points="0,-55 3,-40 0,-45 -3,-40" fill="#8b5a2e" transform="rotate(315)"/>
    <!-- Center -->
    <circle r="6" fill="#f0ddb0" stroke="#8b5a2e" stroke-width="1.5"/>
    <circle r="3" fill="#8b2020"/>
    <!-- Labels -->
    <text y="-40" text-anchor="middle" font-family="Georgia, serif" font-size="14" fill="#8b2020" font-weight="bold">北</text>
    <text y="50" text-anchor="middle" font-family="Georgia, serif" font-size="13" fill="#4a3020" font-weight="bold">南</text>
    <text x="42" y="5" text-anchor="start" font-family="Georgia, serif" font-size="13" fill="#4a3020" font-weight="bold">东</text>
    <text x="-42" y="5" text-anchor="end" font-family="Georgia, serif" font-size="13" fill="#4a3020" font-weight="bold">西</text>
  </g>

  <!-- ==================== LEGEND ==================== -->
  <rect x="1080" y="60" width="260" height="220" rx="6" fill="#f5e8c0" stroke="#8b5a2e" stroke-width="1.5" opacity="0.92"/>
  <text x="1210" y="84" text-anchor="middle" font-family="Georgia, 'Songti SC', serif" font-size="14" fill="#4a2808" font-weight="bold" letter-spacing="2">图 例</text>
  <line x1="1095" y1="90" x2="1325" y2="90" stroke="#8b5a2e" stroke-width="0.8"/>

  <!-- Legend items -->
  <g font-family="Georgia, 'Songti SC', serif" font-size="12" fill="#3a2010">
    <!-- Capital city -->
    <circle cx="1106" cy="108" r="6" fill="#f0e8d0" stroke="#6a3a10" stroke-width="1.2"/>
    <circle cx="1106" cy="108" r="2.5" fill="#8b2020"/>
    <text x="1120" y="112">都城</text>

    <!-- City -->
    <circle cx="1106" cy="132" r="5" fill="#f0e8d0" stroke="#6a3a10" stroke-width="1.1"/>
    <circle cx="1106" cy="132" r="2" fill="#402080"/>
    <text x="1120" y="136">宗门圣地</text>

    <!-- Mountain -->
    <path d="M 1106,152 L 1099,168 L 1113,168 Z" fill="#8a7050" stroke="#6a5030" stroke-width="0.7"/>
    <text x="1120" y="165">山脉</text>

    <!-- Forest -->
    <circle cx="1106" cy="186" r="6" fill="#6a9060"/>
    <text x="1120" y="190">林地</text>

    <!-- River -->
    <path d="M 1097,206 C 1100,202 1106,202 1110,206 C 1113,210 1116,210 1120,206" fill="none" stroke="#5880a0" stroke-width="2"/>
    <text x="1128" y="210">江河</text>

    <!-- Territory -->
    <rect x="1098" y="220" width="16" height="10" rx="2" fill="#8060a0" opacity="0.35" stroke="#8060a0" stroke-width="0.8"/>
    <text x="1120" y="229">势力范围</text>

    <!-- Ice -->
    <rect x="1097" y="240" width="18" height="10" rx="2" fill="#dce8f4" stroke="#a0b8c8" stroke-width="0.8"/>
    <text x="1120" y="249">冰原</text>
  </g>

  <!-- ==================== DECORATIVE FRAME ==================== -->
  <!-- Outer border -->
  <rect x="20" y="20" width="1360" height="860" rx="4" fill="none" stroke="#6b3a0e" stroke-width="4"/>
  <!-- Inner border -->
  <rect x="32" y="32" width="1336" height="836" rx="2" fill="none" stroke="#8b5a2e" stroke-width="1.5"/>
  <rect x="38" y="38" width="1324" height="824" rx="2" fill="none" stroke="#8b5a2e" stroke-width="0.8"/>

  <!-- Corner ornaments -->
  <!-- TL corner -->
  <g stroke="#6b3a0e" stroke-width="1.8" fill="none">
    <path d="M 20,55 L 20,20 L 55,20"/>
    <path d="M 32,62 L 32,32 L 62,32"/>
    <circle cx="44" cy="44" r="8" fill="#f0ddb0" stroke="#8b5a2e" stroke-width="1.5"/>
    <circle cx="44" cy="44" r="4" fill="#8b5a2e"/>
  </g>
  <!-- TR corner -->
  <g stroke="#6b3a0e" stroke-width="1.8" fill="none">
    <path d="M 1380,55 L 1380,20 L 1345,20"/>
    <path d="M 1368,62 L 1368,32 L 1338,32"/>
    <circle cx="1356" cy="44" r="8" fill="#f0ddb0" stroke="#8b5a2e" stroke-width="1.5"/>
    <circle cx="1356" cy="44" r="4" fill="#8b5a2e"/>
  </g>
  <!-- BL corner -->
  <g stroke="#6b3a0e" stroke-width="1.8" fill="none">
    <path d="M 20,845 L 20,880 L 55,880"/>
    <path d="M 32,838 L 32,868 L 62,868"/>
    <circle cx="44" cy="856" r="8" fill="#f0ddb0" stroke="#8b5a2e" stroke-width="1.5"/>
    <circle cx="44" cy="856" r="4" fill="#8b5a2e"/>
  </g>
  <!-- BR corner -->
  <g stroke="#6b3a0e" stroke-width="1.8" fill="none">
    <path d="M 1380,845 L 1380,880 L 1345,880"/>
    <path d="M 1368,838 L 1368,868 L 1338,868"/>
    <circle cx="1356" cy="856" r="8" fill="#f0ddb0" stroke="#8b5a2e" stroke-width="1.5"/>
    <circle cx="1356" cy="856" r="4" fill="#8b5a2e"/>
  </g>

  <!-- ==================== TITLE BANNER ==================== -->
  <rect x="280" y="820" width="580" height="54" rx="4" fill="#4a2808" stroke="#8b5a2e" stroke-width="1.5"/>
  <rect x="284" y="824" width="572" height="46" rx="2" fill="none" stroke="#c8a060" stroke-width="0.8"/>
  <!-- Decorative line in title -->
  <line x1="295" y1="847" x2="400" y2="847" stroke="#c8a060" stroke-width="0.8"/>
  <line x1="740" y1="847" x2="845" y2="847" stroke="#c8a060" stroke-width="0.8"/>
  <text x="570" y="845" text-anchor="middle" font-family="Georgia, 'Songti SC', serif" font-size="18" fill="#f0d890" font-weight="bold" letter-spacing="6">苍云界·人间界舆图</text>
  <text x="570" y="861" text-anchor="middle" font-family="Georgia, serif" font-size="11" fill="#c8a060" letter-spacing="3" font-style="italic">Map of the Mortal Realm · Cangyun World</text>

  <!-- Scale bar -->
  <g transform="translate(100,830)">
    <rect x="0" y="0" width="120" height="8" fill="none" stroke="#6b3a0e" stroke-width="1.2"/>
    <rect x="0" y="0" width="30" height="8" fill="#6b3a0e"/>
    <rect x="60" y="0" width="30" height="8" fill="#6b3a0e"/>
    <text x="0" y="22" font-family="Georgia, serif" font-size="10" fill="#4a2808">0</text>
    <text x="58" y="22" font-family="Georgia, serif" font-size="10" fill="#4a2808">500</text>
    <text x="116" y="22" font-family="Georgia, serif" font-size="10" fill="#4a2808">1000 里</text>
  </g>

  <!-- Sea decorations: ship -->
  <g transform="translate(1020,500)" opacity="0.35" stroke="#305878" fill="none" stroke-width="1.2">
    <path d="M -30,10 C -20,0 0,-8 20,0 L 25,10 Z" fill="#d4b480" stroke="#305878"/>
    <line x1="0" y1="10" x2="0" y2="-25"/>
    <path d="M 0,-25 L 18,0 L 0,-5 Z" fill="#e8d0a0"/>
    <path d="M 0,-5 L -14,8 L 0,4 Z" fill="#e8d0a0"/>
  </g>

  <!-- Sea decorations: whale/sea creature hint -->
  <g transform="translate(160,660)" opacity="0.25" fill="#5080a0">
    <path d="M 0,0 C 15,-8 35,-8 50,0 C 45,8 5,8 0,0 Z"/>
    <path d="M 50,0 C 60,-5 65,-2 60,5 L 50,0 Z"/>
  </g>

  <!-- Parchment aging overlay -->
  <rect x="20" y="20" width="1360" height="860" fill="url(#land-dots)" opacity="0.08" rx="4"/>

  <!-- Edge darkening vignette -->
  <defs>
    <radialGradient id="vignette-map" cx="50%" cy="50%" r="70%">
      <stop offset="50%" style="stop-color:#000000;stop-opacity:0"/>
      <stop offset="100%" style="stop-color:#3a1a00;stop-opacity:0.25"/>
    </radialGradient>
  </defs>
  <rect x="20" y="20" width="1360" height="860" fill="url(#vignette-map)" rx="4"/>

</svg>
